<svg id="visual" viewBox="0 0 900 600" width="900" height="600" xmlns="http://www.w3.org/2000/svg" xmlns:xlink="http://www.w3.org/1999/xlink" version="1.1"><path d="M0 145L16.7 152C33.3 159 66.7 173 100 169C133.3 165 166.7 143 200 136C233.3 129 266.7 137 300 148C333.3 159 366.7 173 400 173C433.3 173 466.7 159 500 152C533.3 145 566.7 145 600 151C633.3 157 666.7 169 700 165C733.3 161 766.7 141 800 142C833.3 143 866.7 165 883.3 176L900 187L900 0L883.3 0C866.7 0 833.3 0 800 0C766.7 0 733.3 0 700 0C666.7 0 633.3 0 600 0C566.7 0 533.3 0 500 0C466.7 0 433.3 0 400 0C366.7 0 333.3 0 300 0C266.7 0 233.3 0 200 0C166.7 0 133.3 0 100 0C66.7 0 33.3 0 16.7 0L0 0Z" fill="#6198ff"></path><path d="M0 217L16.7 224C33.3 231 66.7 245 100 246C133.3 247 166.7 235 200 231C233.3 227 266.7 231 300 237C333.3 243 366.7 251 400 250C433.3 249 466.7 239 500 236C533.3 233 566.7 237 600 247C633.3 257 666.7 273 700 270C733.3 267 766.7 245 800 243C833.3 241 866.7 259 883.3 268L900 277L900 185L883.3 174C866.7 163 833.3 141 800 140C766.7 139 733.3 159 700 163C666.7 167 633.3 155 600 149C566.7 143 533.3 143 500 150C466.7 157 433.3 171 400 171C366.7 171 333.3 157 300 146C266.7 135 233.3 127 200 134C166.7 141 133.3 163 100 167C66.7 171 33.3 157 16.7 150L0 143Z" fill="#3c80ff"></path><path d="M0 313L16.7 319C33.3 325 66.7 337 100 340C133.3 343 166.7 337 200 337C233.3 337 266.7 343 300 350C333.3 357 366.7 365 400 366C433.3 367 466.7 361 500 361C533.3 361 566.7 367 600 377C633.3 387 666.7 401 700 399C733.3 397 766.7 379 800 375C833.3 371 866.7 381 883.3 386L900 391L900 275L883.3 266C866.7 257 833.3 239 800 241C766.7 243 733.3 265 700 268C666.7 271 633.3 255 600 245C566.7 235 533.3 231 500 234C466.7 237 433.3 247 400 248C366.7 249 333.3 241 300 235C266.7 229 233.3 225 200 229C166.7 233 133.3 245 100 244C66.7 243 33.3 229 16.7 222L0 215Z" fill="#0066ff"></path><path d="M0 547L16.7 548C33.3 549 66.7 551 100 545C133.3 539 166.7 525 200 519C233.3 513 266.7 515 300 520C333.3 525 366.7 533 400 538C433.3 543 466.7 545 500 545C533.3 545 566.7 543 600 541C633.3 539 666.7 537 700 538C733.3 539 766.7 543 800 545C833.3 547 866.7 547 883.3 547L900 547L900 389L883.3 384C866.7 379 833.3 369 800 373C766.7 377 733.3 395 700 397C666.7 399 633.3 385 600 375C566.7 365 533.3 359 500 359C466.7 359 433.3 365 400 364C366.7 363 333.3 355 300 348C266.7 341 233.3 335 200 335C166.7 335 133.3 341 100 338C66.7 335 33.3 323 16.7 317L0 311Z" fill="#0059dd"></path><path d="M0 601L16.7 601C33.3 601 66.7 601 100 601C133.3 601 166.7 601 200 601C233.3 601 266.7 601 300 601C333.3 601 366.7 601 400 601C433.3 601 466.7 601 500 601C533.3 601 566.7 601 600 601C633.3 601 666.7 601 700 601C733.3 601 766.7 601 800 601C833.3 601 866.7 601 883.3 601L900 601L900 545L883.3 545C866.7 545 833.3 545 800 543C766.7 541 733.3 537 700 536C666.7 535 633.3 537 600 539C566.7 541 533.3 543 500 543C466.7 543 433.3 541 400 536C366.7 531 333.3 523 300 518C266.7 513 233.3 511 200 517C166.7 523 133.3 537 100 543C66.7 549 33.3 547 16.7 546L0 545Z" fill="#004cbb"></path></svg>